# Blender v2.79 (sub 0) OBJ File: 'dome.blend'
# www.blender.org
o Sphere
v -0.707107 0.000000 0.707107
v -0.866025 0.500000 -0.000000
v -0.353553 0.612372 0.707107
v 0.000000 1.000000 -0.000000
v 0.353554 0.612373 0.707107
v 0.866025 0.500000 -0.000000
v 0.707107 -0.000000 0.707107
v 0.866025 -0.500000 -0.000000
v 0.000000 -0.000000 1.000000
v 0.353553 -0.612372 0.707107
v 0.000000 -1.000000 -0.000000
v -0.353553 -0.612372 0.707107
v -0.866025 -0.500000 -0.000000
vn -0.6124 0.3536 0.7071
vn -0.4878 0.8449 0.2193
vn 0.4878 0.8449 0.2193
vn 0.0000 0.7071 0.7071
vn 0.6124 0.3536 0.7071
vn 0.9757 0.0000 0.2193
vn 0.4878 -0.8449 0.2193
vn 0.6124 -0.3536 0.7071
vn -0.0000 -0.7071 0.7071
vn -0.9757 -0.0000 0.2193
vn -0.6124 -0.3536 0.7071
vn -0.4878 -0.8449 0.2193
s off
f 3//1 2//1 1//1 9//1
f 3//2 4//2 2//2
f 4//3 5//3 6//3
f 5//4 4//4 3//4 9//4
f 7//5 6//5 5//5 9//5
f 6//6 7//6 8//6
f 8//7 10//7 11//7
f 10//8 8//8 7//8 9//8
f 12//9 11//9 10//9 9//9
f 13//10 1//10 2//10
f 1//11 13//11 12//11 9//11
f 11//12 12//12 13//12
