# Blender v2.79 (sub 0) OBJ File: 'littlePerson.blend'
# www.blender.org
E SPHERE -0.077543 0.000000 7.409019 1.000000
o Cube.001_Cube.002
v 0.078946 0.249650 6.477531
v -0.300436 0.237793 6.521070
v -0.170907 0.332674 6.086661
v -0.550329 0.498406 5.505036
v -0.066039 0.724854 6.128322
v -0.430235 0.723523 6.141101
v 0.075804 0.924851 5.568544
v -0.449311 0.924052 5.402373
v -0.094492 0.792866 4.671093
v 0.073001 0.436866 3.451756
v -0.464203 0.358156 3.606961
v -0.015532 0.974690 3.766602
v -0.665122 0.671230 3.730405
v -0.221446 0.630526 1.921650
v -0.364842 1.077711 1.966745
v 0.202032 0.954848 1.890829
v -0.083958 0.727035 0.641135
v -0.035372 1.326928 0.756902
v -0.586715 2.159285 5.891280
v -0.209399 3.123669 5.939219
v -0.535758 3.122883 5.954700
v -0.258000 3.145351 5.672162
v -0.528266 3.122156 5.733062
v -0.542951 1.199705 0.000000
v 1.575935 0.711781 0.000000
v 1.565915 1.480250 0.000000
v -0.532244 3.593398 5.996754
v -0.635735 3.589051 5.723049
v -0.309690 2.305751 5.508177
v -0.098334 2.328812 5.931318
v -0.430001 2.327481 6.082526
v -0.641357 2.304418 5.659384
v -0.023715 1.801378 5.860746
v 0.231258 3.794478 5.843052
v 0.223119 3.786306 5.640937
v -0.512076 3.870442 5.964702
v -0.030307 3.895856 5.958704
v -0.592240 3.880787 5.721888
v -0.047655 3.882763 5.727362
v -0.401397 4.363204 5.791115
v -0.095089 4.365412 5.791178
v -0.428724 4.375394 5.640956
v -0.122416 4.377603 5.641019
v -0.376261 1.770907 5.498389
v 0.221590 0.808233 2.324456
v -0.277036 1.095015 2.369223
v -0.245010 0.566346 2.347933
v -0.272215 1.800048 6.127318
v -0.625088 1.769570 5.765245
v -0.524788 1.195565 0.767948
v -0.096783 3.620571 5.971055
v 0.255672 0.000000 6.508894
v -0.397266 0.000000 6.545462
v 0.078946 -0.249650 6.477531
v -0.300436 -0.237793 6.521070
v 0.184749 0.000000 6.129194
v -0.402137 0.000000 6.177485
v -0.170907 -0.332674 6.086661
v -0.499571 0.000000 5.198245
v -0.550329 -0.498406 5.505036
v -0.066039 -0.724854 6.128322
v -0.430235 -0.723523 6.141101
v 0.075804 -0.924851 5.568544
v -0.449311 -0.924052 5.402373
v 0.503129 0.000000 5.466364
v -0.445693 0.000000 4.643666
v -0.094492 -0.792866 4.671093
v 0.103206 0.000000 3.683039
v -0.527504 0.000000 3.725863
v 0.073001 -0.436866 3.451756
v -0.464203 -0.358156 3.606961
v -0.015532 -0.974690 3.766602
v -0.665122 -0.671230 3.730405
v -0.221446 -0.630526 1.921650
v -0.364842 -1.077711 1.966745
v 0.202032 -0.954848 1.890829
v -0.083958 -0.727035 0.641135
v -0.035372 -1.326928 0.756902
v -0.586715 -2.159285 5.891280
v -0.209399 -3.123669 5.939219
v -0.535758 -3.122883 5.954700
v -0.258000 -3.145351 5.672162
v -0.528266 -3.122156 5.733062
v -0.542951 -1.199705 0.000000
v 1.575935 -0.711781 0.000000
v 1.565915 -1.480250 0.000000
v -0.532244 -3.593398 5.996754
v -0.635735 -3.589051 5.723049
v -0.309690 -2.305751 5.508177
v -0.098334 -2.328812 5.931318
v -0.430001 -2.327481 6.082526
v -0.641357 -2.304418 5.659384
v -0.023715 -1.801378 5.860746
v 0.231258 -3.794478 5.843052
v 0.223119 -3.786306 5.640937
v -0.512076 -3.870442 5.964702
v -0.030307 -3.895856 5.958704
v -0.592240 -3.880787 5.721888
v -0.047655 -3.882763 5.727362
v -0.401397 -4.363204 5.791115
v -0.095089 -4.365412 5.791178
v -0.428724 -4.375394 5.640956
v -0.122416 -4.377603 5.641019
v -0.376261 -1.770907 5.498389
v 0.221590 -0.808233 2.324456
v -0.277036 -1.095015 2.369223
v -0.245010 -0.566346 2.347933
v -0.272215 -1.800048 6.127318
v -0.625088 -1.769570 5.765245
v -0.524788 -1.195565 0.767948
v -0.096783 -3.620571 5.971055
vn -0.0063 0.9773 0.2116
vn 0.0353 -0.1149 0.9928
vn 0.6727 0.6828 -0.2850
vn -0.9256 0.3782 0.0123
vn -0.9617 0.1148 0.2490
vn -0.9448 0.1267 0.3021
vn 0.9519 -0.2699 0.1448
vn -0.9554 -0.1710 0.2409
vn 0.0473 0.9869 -0.1541
vn -0.1276 -0.3954 -0.9096
vn -0.4254 0.8937 0.1425
vn 0.8884 -0.4425 -0.1226
vn 0.3667 0.9254 0.0960
vn 0.9334 0.0709 -0.3517
vn -0.8095 -0.0497 0.5850
vn -0.9750 -0.1146 0.1901
vn 0.2439 0.1059 0.9640
vn -0.9535 0.0144 0.3009
vn -0.3337 0.1662 -0.9279
vn -0.1960 -0.8511 -0.4871
vn 0.0000 0.0000 -1.0000
vn -0.1315 0.9883 -0.0779
vn -0.9345 0.1241 0.3337
vn 0.3257 0.9432 -0.0654
vn 0.8097 0.0504 -0.5847
vn 0.5806 0.1082 0.8070
vn 0.0141 -0.0135 -0.9998
vn 0.8076 -0.5786 -0.1143
vn -0.9086 0.3211 0.2670
vn 0.0852 -0.0160 0.9962
vn -0.0072 0.9966 0.0822
vn 0.0072 -0.1673 -0.9859
vn 0.9869 0.1123 -0.1158
vn -0.0046 0.3343 0.9425
vn 0.2683 -0.9448 -0.1881
vn 0.8270 0.5576 0.0716
vn -0.9391 -0.2136 -0.2692
vn -0.4252 0.8915 0.1563
vn 0.5169 -0.8320 -0.2015
vn -0.9813 -0.1809 0.0658
vn -0.5837 -0.0454 -0.8107
vn 0.0089 0.9789 0.2041
vn -0.8457 -0.5323 -0.0384
vn 0.9884 0.1116 0.1032
vn 0.7180 0.4207 0.5545
vn -0.9156 0.2387 -0.3237
vn 0.8698 0.4479 -0.2071
vn 0.4151 -0.1190 0.9020
vn -0.9658 -0.0977 -0.2403
vn 0.5005 0.1976 -0.8429
vn 0.8946 0.0744 0.4407
vn -0.4394 0.0760 0.8951
vn -0.0117 -0.0225 0.9997
vn -0.2590 0.9658 0.0113
vn -0.7264 -0.6871 0.0135
vn -0.8304 0.5419 -0.1293
vn 0.8156 0.5582 -0.1523
vn 0.3956 -0.0885 0.9141
vn -0.2423 0.1410 -0.9599
vn -0.0063 -0.9773 0.2116
vn 0.0353 0.1149 0.9928
vn 0.6727 -0.6828 -0.2850
vn -0.9256 -0.3782 0.0123
vn -0.9617 -0.1148 0.2490
vn -0.9448 -0.1267 0.3021
vn 0.9519 0.2699 0.1448
vn -0.9554 0.1710 0.2409
vn 0.0473 -0.9869 -0.1541
vn -0.1276 0.3954 -0.9096
vn -0.4254 -0.8937 0.1425
vn 0.8884 0.4425 -0.1226
vn 0.3667 -0.9254 0.0960
vn 0.9334 -0.0709 -0.3517
vn -0.8095 0.0497 0.5850
vn -0.9750 0.1146 0.1901
vn 0.2439 -0.1059 0.9640
vn -0.9535 -0.0144 0.3009
vn -0.3337 -0.1662 -0.9279
vn -0.1960 0.8511 -0.4871
vn -0.1315 -0.9883 -0.0779
vn -0.9345 -0.1241 0.3337
vn 0.3257 -0.9432 -0.0654
vn 0.8097 -0.0504 -0.5847
vn 0.5806 -0.1082 0.8070
vn 0.0141 0.0135 -0.9998
vn 0.8076 0.5786 -0.1143
vn -0.9086 -0.3211 0.2670
vn 0.0852 0.0160 0.9962
vn -0.0072 -0.9966 0.0822
vn 0.0072 0.1673 -0.9859
vn 0.9869 -0.1123 -0.1158
vn -0.0046 -0.3343 0.9425
vn 0.2683 0.9448 -0.1881
vn 0.8270 -0.5576 0.0716
vn -0.9391 0.2136 -0.2692
vn -0.4252 -0.8915 0.1563
vn 0.5169 0.8320 -0.2015
vn -0.9813 0.1809 0.0658
vn -0.5837 0.0454 -0.8107
vn 0.0089 -0.9789 0.2041
vn -0.8457 0.5323 -0.0384
vn 0.9884 -0.1116 0.1032
vn 0.7180 -0.4207 0.5545
vn -0.9156 -0.2387 -0.3237
vn 0.8698 -0.4479 -0.2071
vn 0.4151 0.1190 0.9020
vn -0.9658 0.0977 -0.2403
vn 0.5005 -0.1976 -0.8429
vn 0.8946 -0.0744 0.4407
vn -0.4394 -0.0760 0.8951
vn -0.0117 0.0225 0.9997
vn -0.2590 -0.9658 0.0113
vn -0.7264 0.6871 0.0135
vn -0.8304 -0.5419 -0.1293
vn 0.8156 -0.5582 -0.1523
vn 0.3956 0.0885 0.9141
vn -0.2423 -0.1410 -0.9599
s off
f 2//1 1//1 3//1
f 3//2 5//2 6//2
f 1//3 56//3 3//3
f 53//4 2//4 57//4
f 11//5 69//5 66//5 9//5 13//5
f 57//6 3//6 4//6 59//6
f 3//7 7//7 5//7
f 4//8 3//8 6//8 8//8
f 8//9 7//9 9//9
f 69//10 11//10 10//10 68//10
f 9//11 12//11 13//11
f 16//12 14//12 17//12 18//12
f 15//13 46//13 45//13 16//13
f 30//14 29//14 22//14 20//14
f 49//15 48//15 31//15 32//15
f 23//16 21//16 27//16 28//16
f 31//17 30//17 20//17 21//17
f 32//18 31//18 21//18 23//18
f 29//19 32//19 23//19 22//19
f 24//20 25//20 17//20
f 24//21 26//21 25//21
f 26//22 24//22 18//22
f 28//23 27//23 36//23 38//23
f 35//24 39//24 37//24 34//24
f 30//25 33//25 44//25 29//25
f 48//26 33//26 30//26 31//26
f 28//27 38//27 39//27 23//27
f 20//28 22//28 35//28 34//28
f 38//29 36//29 40//29 42//29
f 36//30 27//30 21//30 37//30
f 40//31 41//31 43//31 42//31
f 39//32 38//32 42//32 43//32
f 37//33 39//33 43//33 41//33
f 36//34 37//34 41//34 40//34
f 10//35 11//35 47//35 45//35
f 12//36 10//36 45//36 46//36
f 11//37 13//37 46//37 47//37
f 13//38 12//38 46//38
f 16//39 45//39 47//39 14//39
f 14//40 47//40 46//40 15//40
f 49//41 32//41 29//41 44//41
f 50//42 15//42 16//42 18//42
f 50//43 17//43 14//43 15//43
f 68//44 10//44 12//44 9//44
f 56//45 65//45 7//45 3//45
f 8//46 9//46 66//46 59//46 4//46
f 65//47 68//47 9//47 7//47
f 51//48 20//48 34//48 37//48
f 6//49 49//49 44//49 8//49
f 8//50 44//50 33//50 7//50
f 7//51 33//51 48//51 5//51
f 5//52 48//52 49//52 6//52
f 37//53 21//53 20//53 51//53
f 24//54 50//54 18//54
f 17//55 50//55 24//55
f 57//56 2//56 3//56
f 56//57 1//57 52//57
f 18//58 17//58 25//58 26//58
f 23//59 39//59 35//59 22//59
f 55//60 58//60 54//60
f 58//61 62//61 61//61
f 54//62 58//62 56//62
f 53//63 57//63 55//63
f 71//64 73//64 67//64 66//64 69//64
f 57//65 59//65 60//65 58//65
f 58//66 61//66 63//66
f 60//67 64//67 62//67 58//67
f 64//68 67//68 63//68
f 69//69 68//69 70//69 71//69
f 67//70 73//70 72//70
f 76//71 78//71 77//71 74//71
f 75//72 76//72 105//72 106//72
f 90//73 80//73 82//73 89//73
f 109//74 92//74 91//74 108//74
f 83//75 88//75 87//75 81//75
f 91//76 81//76 80//76 90//76
f 92//77 83//77 81//77 91//77
f 89//78 82//78 83//78 92//78
f 84//79 77//79 85//79
f 84//21 85//21 86//21
f 86//80 78//80 84//80
f 88//81 98//81 96//81 87//81
f 95//82 94//82 97//82 99//82
f 90//83 89//83 104//83 93//83
f 108//84 91//84 90//84 93//84
f 88//85 83//85 99//85 98//85
f 80//86 94//86 95//86 82//86
f 98//87 102//87 100//87 96//87
f 96//88 97//88 81//88 87//88
f 100//89 102//89 103//89 101//89
f 99//90 103//90 102//90 98//90
f 97//91 101//91 103//91 99//91
f 96//92 100//92 101//92 97//92
f 70//93 105//93 107//93 71//93
f 72//94 106//94 105//94 70//94
f 71//95 107//95 106//95 73//95
f 73//96 106//96 72//96
f 76//97 74//97 107//97 105//97
f 74//98 75//98 106//98 107//98
f 109//99 104//99 89//99 92//99
f 110//100 78//100 76//100 75//100
f 110//101 75//101 74//101 77//101
f 68//102 67//102 72//102 70//102
f 56//103 58//103 63//103 65//103
f 64//104 60//104 59//104 66//104 67//104
f 65//105 63//105 67//105 68//105
f 111//106 97//106 94//106 80//106
f 62//107 64//107 104//107 109//107
f 64//108 63//108 93//108 104//108
f 63//109 61//109 108//109 93//109
f 61//110 62//110 109//110 108//110
f 97//111 111//111 80//111 81//111
f 84//112 78//112 110//112
f 77//113 84//113 110//113
f 57//114 58//114 55//114
f 56//115 52//115 54//115
f 78//116 86//116 85//116 77//116
f 83//117 82//117 95//117 99//117
