# Blender v2.79 (sub 0) OBJ File: 'microPerson.blend'
# www.blender.org
B base 0.0000 -0.0380 0.1474 0.7905 -0.0000 -0.0000 0.6125
B foot.L -0.0039 0.0432 -0.3866 -0.6650 -0.0448 0.0469 0.7440
B foot.R 0.0039 0.0432 -0.3866 -0.6650 0.0448 -0.0469 0.7440
B forearm.L -0.0125 0.2758 0.0504 0.0918 -0.0895 0.0142 0.9916
B forearm.R 0.0125 0.2758 0.0504 0.0918 0.0895 -0.0142 0.9916
B hand.L 0.0030 0.2092 0.0109 0.0261 -0.0006 -0.0072 0.9996
B hand.R -0.0030 0.2092 0.0109 0.0261 0.0006 0.0072 0.9996
B head 0.0000 0.3201 0.0465 0.0721 0.0000 0.0000 0.9974
B shin.L -0.0047 0.4556 0.0328 0.0358 0.0113 0.0055 0.9993
B shin.R 0.0047 0.4556 0.0328 0.0358 -0.0113 -0.0055 0.9993
B spine 0.0000 0.3681 -0.1078 -0.1419 0.0000 0.0000 0.9899
B thigh.L 0.0670 -0.4562 0.1213 0.9891 0.0693 -0.0133 0.1295
B thigh.R -0.0670 -0.4562 0.1213 0.9891 -0.0693 0.0133 0.1295
B upper_arm.L 0.3077 -0.0020 -0.0619 -0.0179 0.1216 -0.7091 0.6943
B upper_arm.R -0.3077 -0.0020 -0.0619 -0.0179 -0.1216 0.7091 0.6943
v 0.190506 0.125019 1.751011 0.819608 0.819608 0.819608
v 0.208929 0.13784 1.876969 0.231373 0.188235 0.54902
v 0.213651 0.037606 1.735987 0.819608 0.819608 0.819608
v 0.243887 0.040612 1.882834 0.231373 0.188235 0.54902
v 0.190506 -0.125019 1.751011 0.819608 0.819608 0.819608
v 0.208929 -0.13784 1.876969 0.231373 0.188235 0.54902
v 0.213651 -0.037606 1.735987 0.819608 0.819608 0.819608
v 0.243887 -0.040612 1.882834 0.231373 0.188235 0.54902
vn 0.9349 0.3033 -0.1843
vn 0.9349 -0.3033 -0.1843
s off
f 3//1 1//1 2//1 4//1
f 7//2 8//2 6//2 5//2
v 0.149463 0.160547 1.700412 1 0.490196 0.745098
v 0.149463 0.160547 2.021506 1 0.490196 0.745098
v -0.206702 0.195618 1.665341 1 1 1
v -0.206702 0.195618 2.056577 1 1 1
v -0.278303 0.071601 1.665341 1 1 1
v -0.278303 -0.071601 1.665341 1 1 1
v -0.245642 -0.069026 2.095517 1 1 1
v -0.245642 0.069026 2.095517 1 1 1
v -0.232662 0.221578 1.928712 1 1 1
v -0.219682 0.208598 1.79448 1 1 1
v 0.056254 0.219485 1.665341 1 1 1
v -0.080553 0.243352 1.665341 1 1 1
v -0.078836 0.221578 2.082537 1 1 1
v 0.055395 0.208598 2.069557 1 1 1
v 0.158978 0.211559 1.921353 1 0.490196 0.745098
v 0.169264 0.202352 1.798878 1 0.490196 0.745098
v 0.196612 0.071601 2.073737 1 0.490196 0.745098
v 0.196612 -0.071601 2.073737 1 0.490196 0.745098
v -0.109307 0.084278 2.151515 1 1 1
v 0.040907 0.079081 2.143462 1 1 1
v -0.109307 -0.084278 2.151515 1 1 1
v 0.040907 -0.079081 2.143462 1 1 1
v -0.090014 0.257353 1.806874 1 1 1
v 0.051114 0.239632 1.800529 1 1 1
v -0.098766 0.266041 1.951489 1 1 1
v 0.04592 0.256742 1.942077 1 1 1
v -0.290953 -0.075983 1.815142 1 1 1
v -0.290953 0.075983 1.815142 1 1 1
v -0.293887 -0.079604 1.966684 1 1 1
v -0.293887 0.079604 1.966684 1 1 1
v 0.250067 0.13361 1.918809 1 0.490196 0.745098
v 0.271351 0.071601 1.851366 1 0.490196 0.745098
v 0.271351 -0.071601 1.851366 1 0.490196 0.745098
v 0.149463 -0.160547 1.700412 1 0.490196 0.745098
v 0.149463 -0.160547 2.021506 1 0.490196 0.745098
v -0.206702 -0.195618 1.665341 1 1 1
v -0.206702 -0.195618 2.056577 1 1 1
v -0.278303 -0.071601 1.665341 1 1 1
v -0.278303 0.071601 1.665341 1 1 1
v -0.245642 0.069026 2.095517 1 1 1
v -0.245642 -0.069026 2.095517 1 1 1
v -0.232662 -0.221578 1.928712 1 1 1
v -0.219682 -0.208598 1.79448 1 1 1
v 0.056254 -0.219485 1.665341 1 1 1
v -0.080553 -0.243352 1.665341 1 1 1
v -0.078836 -0.221578 2.082537 1 1 1
v 0.055395 -0.208598 2.069557 1 1 1
v 0.158978 -0.211559 1.921353 1 0.490196 0.745098
v 0.169264 -0.202352 1.798878 1 0.490196 0.745098
v 0.196612 -0.071601 2.073737 1 0.490196 0.745098
v 0.196612 0.071601 2.073737 1 0.490196 0.745098
v -0.109307 -0.084278 2.151515 1 1 1
v 0.040907 -0.079081 2.143462 1 1 1
v -0.109307 0.084278 2.151515 1 1 1
v 0.040907 0.079081 2.143462 1 1 1
v -0.090014 -0.257353 1.806874 1 1 1
v 0.051114 -0.239632 1.800529 1 1 1
v -0.098766 -0.266041 1.951489 1 1 1
v 0.04592 -0.256742 1.942077 1 1 1
v -0.290953 0.075983 1.815142 1 1 1
v -0.290953 -0.075983 1.815142 1 1 1
v -0.293887 0.079604 1.966684 1 1 1
v -0.293887 -0.079604 1.966684 1 1 1
v 0.250067 -0.13361 1.918809 1 0.490196 0.745098
v 0.271351 -0.071601 1.851366 1 0.490196 0.745098
v 0.271351 0.071601 1.851366 1 0.490196 0.745098
v 0.134281 0.130314 1.709381 1 0.490196 0.745098
v 0.130958 0.137804 2.002394 1 0.490196 0.745098
v -0.184045 0.169292 1.669657 1 1 1
v -0.244552 0.063026 1.668841 1 1 1
v -0.243428 -0.071601 1.668286 1 1 1
v -0.220593 -0.069026 2.071073 1 1 1
v 0.04622 0.186582 1.671795 1 1 1
v -0.077235 0.20877 1.669579 1 1 1
v 0.144715 0.179876 1.917146 1 0.490196 0.745098
v 0.155796 0.170592 1.804778 1 0.490196 0.745098
v 0.172786 0.062717 2.049689 1 0.490196 0.745098
v 0.170838 -0.071601 2.05006 1 0.490196 0.745098
v -0.10363 -0.084278 2.116979 1 1 1
v 0.032839 -0.079081 2.109405 1 1 1
v -0.256 -0.075983 1.816934 1 1 1
v -0.25937 -0.079604 1.960896 1 1 1
v 0.227698 0.112184 1.902515 1 0.490196 0.745098
v 0.238175 0.071601 1.840216 1 0.490196 0.745098
v 0.238175 -0.071601 1.840216 1 0.490196 0.745098
v 0.134281 -0.130314 1.709381 1 0.490196 0.745098
v 0.130958 -0.137804 2.002394 1 0.490196 0.745098
v -0.184045 -0.169292 1.669657 1 1 1
v -0.244552 -0.063026 1.668841 1 1 1
v -0.243428 0.071601 1.668286 1 1 1
v -0.220593 0.069026 2.071073 1 1 1
v 0.04622 -0.186582 1.671795 1 1 1
v -0.077235 -0.20877 1.669579 1 1 1
v 0.144715 -0.179876 1.917146 1 0.490196 0.745098
v 0.155796 -0.170592 1.804778 1 0.490196 0.745098
v 0.172786 -0.062717 2.049689 1 0.490196 0.745098
v 0.170838 0.071601 2.05006 1 0.490196 0.745098
v -0.10363 0.084278 2.116979 1 1 1
v 0.032839 0.079081 2.109405 1 1 1
v -0.256 0.075983 1.816934 1 1 1
v -0.25937 0.079604 1.960896 1 1 1
v 0.227698 -0.112184 1.902515 1 0.490196 0.745098
v 0.238175 -0.071601 1.840216 1 0.490196 0.745098
v 0.238175 0.071601 1.840216 1 0.490196 0.745098
vn -0.8597 0.4085 0.3067
vn 0.4787 0.8049 0.3507
vn 0.4582 0.4948 0.7384
vn 0.4087 0.0000 0.9127
vn -0.3280 0.4302 0.8410
vn 0.0946 0.4575 0.8841
vn -0.3799 0.0000 0.9250
vn 0.0535 0.0000 0.9986
vn 0.4338 0.8638 -0.2563
vn 0.3286 0.9415 -0.0746
vn -0.3451 0.9307 -0.1214
vn 0.1445 0.9830 -0.1137
vn -0.3202 0.9423 -0.0982
vn 0.0891 0.9924 -0.0851
vn -0.2995 0.9059 0.2995
vn 0.1012 0.9402 0.3253
vn -0.8722 0.4767 -0.1098
vn -0.9043 0.4204 -0.0748
vn -0.9965 0.0000 -0.0841
vn -0.9998 0.0000 -0.0194
vn -0.9365 0.0000 0.3507
vn 0.6391 0.6122 0.4655
vn 0.9479 0.0000 0.3186
vn -0.8597 -0.4085 0.3067
vn 0.4787 -0.8049 0.3507
vn 0.4582 -0.4948 0.7384
vn -0.3280 -0.4302 0.8410
vn 0.0946 -0.4575 0.8841
vn 0.4338 -0.8638 -0.2563
vn 0.3286 -0.9415 -0.0746
vn -0.3451 -0.9307 -0.1214
vn 0.1445 -0.9830 -0.1137
vn -0.3202 -0.9423 -0.0982
vn 0.0891 -0.9924 -0.0851
vn -0.2995 -0.9059 0.2995
vn 0.1012 -0.9402 0.3253
vn -0.8722 -0.4767 -0.1098
vn -0.9043 -0.4204 -0.0748
vn 0.6391 -0.6122 0.4655
vn 0.0447 -0.1202 -0.9917
vn 0.9063 -0.4223 -0.0144
vn 0.1032 -0.0557 -0.9931
vn 0.0938 0.0024 -0.9956
vn 0.1833 -0.3017 -0.9356
vn -0.0190 -0.1546 -0.9878
vn 0.8729 -0.4711 -0.1270
vn 0.9114 -0.3953 0.1141
vn 0.0405 -0.9989 -0.0237
vn -0.0989 -0.9938 -0.0515
vn 0.0362 -0.9993 -0.0013
vn 0.0020 -0.9996 -0.0292
vn -0.0014 -0.9997 -0.0245
vn 0.0378 -0.9965 0.0744
vn 0.5954 -0.7993 -0.0813
vn -0.3537 0.7621 -0.5423
vn 0.3186 0.0000 -0.9479
vn -0.1390 0.9900 -0.0247
vn 0.0000 -1.0000 0.0000
vn 0.0447 0.1202 -0.9917
vn 0.9063 0.4223 -0.0144
vn 0.1032 0.0557 -0.9931
vn 0.0938 -0.0024 -0.9956
vn 0.1833 0.3017 -0.9356
vn -0.0190 0.1546 -0.9878
vn 0.8729 0.4711 -0.1270
vn 0.9114 0.3953 0.1141
vn 0.0405 0.9989 -0.0237
vn -0.0989 0.9938 -0.0515
vn 0.0362 0.9993 -0.0013
vn 0.0020 0.9996 -0.0292
vn -0.0014 0.9997 -0.0245
vn 0.0378 0.9965 0.0744
vn 0.5954 0.7993 -0.0813
vn -0.3537 -0.7621 -0.5423
vn -0.1390 -0.9900 -0.0247
vn 0.0000 1.0000 0.0000
s off
f 38//3 16//3 12//3 17//3
f 34//4 22//4 10//4 23//4
f 22//5 28//5 25//5 10//5
f 28//6 30//6 26//6 25//6
f 12//7 16//7 27//7 21//7
f 21//8 27//8 28//8 22//8
f 16//9 15//9 29//9 27//9
f 27//10 29//10 30//10 28//10
f 19//11 32//11 24//11 9//11
f 32//12 34//12 23//12 24//12
f 11//13 18//13 31//13 20//13
f 20//14 31//14 32//14 19//14
f 18//15 17//15 33//15 31//15
f 31//16 33//16 34//16 32//16
f 17//17 12//17 21//17 33//17
f 33//18 21//18 22//18 34//18
f 13//19 36//19 18//19 11//19
f 36//20 38//20 17//20 18//20
f 14//21 35//21 36//21 13//21
f 35//22 37//22 38//22 36//22
f 37//23 15//23 16//23 38//23
f 10//24 25//24 39//24
f 25//25 26//25 41//25 40//25
f 71//26 50//26 45//26 49//26
f 67//27 56//27 43//27 55//27
f 55//28 43//28 58//28 61//28
f 61//6 58//6 59//6 63//6
f 45//29 54//29 60//29 49//29
f 54//30 55//30 61//30 60//30
f 49//9 60//9 62//9 48//9
f 60//10 61//10 63//10 62//10
f 52//31 42//31 57//31 65//31
f 65//32 57//32 56//32 67//32
f 44//33 53//33 64//33 51//33
f 53//34 52//34 65//34 64//34
f 51//35 64//35 66//35 50//35
f 64//36 65//36 67//36 66//36
f 50//37 66//37 54//37 45//37
f 66//38 67//38 55//38 54//38
f 46//39 44//39 51//39 69//39
f 69//40 51//40 50//40 71//40
f 47//21 46//21 69//21 68//21
f 68//22 69//22 71//22 70//22
f 70//23 71//23 49//23 48//23
f 43//41 72//41 58//41
f 58//25 73//25 74//25 59//25
f 11//42 20//42 82//42 77//42
f 9//43 24//43 84//43 75//43
f 13//44 11//44 77//44 78//44
f 14//45 13//45 78//45 79//45
f 19//46 9//46 75//46 81//46
f 20//47 19//47 81//47 82//47
f 23//48 10//48 76//48 83//48
f 24//49 23//49 83//49 84//49
f 26//50 30//50 88//50 86//50
f 29//51 15//51 80//51 87//51
f 30//52 29//52 87//52 88//52
f 35//53 14//53 79//53 89//53
f 37//54 35//54 89//54 90//54
f 15//55 37//55 90//55 80//55
f 39//56 25//56 85//56 91//56
f 10//57 39//57 91//57 76//57
f 40//58 41//58 93//58 92//58
f 25//59 40//59 92//59 85//59
f 41//60 26//60 86//60 93//60
f 53//61 44//61 96//61 101//61
f 57//62 42//62 94//62 103//62
f 44//63 46//63 97//63 96//63
f 46//64 47//64 98//64 97//64
f 42//65 52//65 100//65 94//65
f 52//66 53//66 101//66 100//66
f 43//67 56//67 102//67 95//67
f 56//68 57//68 103//68 102//68
f 63//69 59//69 105//69 107//69
f 48//70 62//70 106//70 99//70
f 62//71 63//71 107//71 106//71
f 47//72 68//72 108//72 98//72
f 68//73 70//73 109//73 108//73
f 70//74 48//74 99//74 109//74
f 58//75 72//75 110//75 104//75
f 72//76 43//76 95//76 110//76
f 74//58 73//58 111//58 112//58
f 73//77 58//77 104//77 111//77
f 59//78 74//78 112//78 105//78
E SPHERE -0.088186 0.544322 0.846686 0.140000
E SPHERE -0.011084 -0.000000 1.860959 0.250000
E SPHERE -0.088186 -0.544322 0.846686 0.140000
g head
v -0.0001510.0677471.628499
v -0.0703280.0493061.631199
v 0.04858401.626118
v -0.09495501.633355
v -0.000151-0.0677471.628499
v -0.070328-0.0493061.631199
g hand.L
v -0.052350.5155460.961804
v -0.1330030.4947620.950136
v -0.06450.4604370.923728
g upper_arm.L
v -0.016510.2566371.504801
v -0.1075590.2592371.506686
v -0.091370.2527121.189945
v -0.0765540.3983561.230039
v -0.1562720.3086181.233228
g forearm.L
v -0.0813130.3144771.102955
v -0.0621940.3469861.176877
v -0.0867250.4223621.183497
v -0.1603390.3525541.104198
g spine
v -0.0427270.0831681.521666
v -0.1375820.1246021.376259
v 0.0189510.2312131.392136
v -0.1123280.2310131.350593
v 0.04618701.532299
v -0.10053401.544371
v -0.042727-0.0831681.521666
v -0.12489301.299561
v -0.137582-0.1246021.376259
v 0.018951-0.2312131.392136
v -0.112328-0.2310131.350593
v 0.12578201.366591
g base
v -0.0236230.1982161.167773
v -0.11142301.160917
v -0.023623-0.1982161.167773
v 0.02580200.92076
v -0.13187600.931466
g thigh.L
v 0.0164550.1080860.864062
v -0.1252120.0605380.889381
v -0.0059070.246120.943193
v -0.168890.1563010.930684
v -0.125340.1932470.547368
v 0.0330540.2054290.559038
g shin.L
v -0.0209890.1817590.160284
v -0.0316730.3019250.174976
v -0.1311970.2376280.184278
v -0.0396650.2859350.532251
v -0.0057580.1173130.512038
v 0.018780.2084690.493523
g foot.L
v -0.1357380.249828-0
v 0.3939840.177945-0
v 0.3914790.370063-0
g upper_arm.R
v -0.01651-0.2566371.504801
v -0.107559-0.2592371.506686
v -0.09137-0.2527121.189945
v -0.076554-0.3983561.230039
v -0.156272-0.3086181.233228
g forearm.R
v -0.081313-0.3144771.102955
v -0.062194-0.3469861.176877
v -0.086725-0.4223621.183497
v -0.160339-0.3525541.104198
g hand.R
v -0.05235-0.5155460.961804
v -0.133003-0.4947620.950136
v -0.0645-0.4604370.923728
g thigh.R
v 0.016455-0.1080860.864062
v -0.125212-0.0605380.889381
v -0.005907-0.246120.943193
v -0.16889-0.1563010.930684
v -0.12534-0.1932470.547368
v 0.033054-0.2054290.559038
g shin.R
v -0.020989-0.1817590.160284
v -0.031673-0.3019250.174976
v -0.131197-0.2376280.184278
v -0.039665-0.2859350.532251
v -0.005758-0.1173130.512038
v 0.01878-0.2084690.493523
g foot.R
v -0.135738-0.2498280
v 0.393984-0.177945-0
v 0.391479-0.370063-0
vn -0.2389 0.9431 0.2314
vn 0.0233 0.0933 0.9954
vn -0.8494 0.5278 -0.0042
vn -0.8737 -0.2091 -0.4391
vn -0.9448 0.1267 0.3021
vn 0.9405 -0.1109 0.3211
vn -0.9470 -0.0882 0.3090
vn 0.0473 0.9869 -0.1541
vn -0.0235 -0.5056 -0.8624
vn 0.9714 -0.2132 -0.1044
vn -0.7554 0.5882 0.2889
vn 0.4053 0.8186 0.4069
vn -0.8093 0.4962 0.3144
vn -0.4361 -0.6514 -0.6209
vn 0.0000 -0.0000 -1.0000
vn -0.1984 -0.9452 -0.2594
vn 0.5196 -0.7723 -0.3656
vn -0.5855 -0.7217 -0.3693
vn 0.9884 0.1187 0.0952
vn 0.7180 0.4207 0.5545
vn -0.9156 0.2387 -0.3237
vn 0.8698 0.4479 -0.2071
vn -0.8479 -0.5292 -0.0324
vn -0.4132 0.8313 0.3717
vn 0.3731 -0.0279 0.9274
vn 0.6043 -0.7945 -0.0590
vn -0.5897 0.8045 0.0705
vn -0.7547 -0.6118 -0.2371
vn 0.7572 0.6390 -0.1353
vn -0.2821 0.9524 -0.1158
vn 0.1940 -0.9634 -0.1849
vn -0.5531 -0.8280 -0.0923
vn 0.9387 0.3414 -0.0485
vn 0.9308 -0.2945 -0.2165
vn -0.9381 0.1289 0.3216
vn -0.4861 0.8617 0.1455
vn 0.7371 0.6661 -0.1140
vn 0.9487 0.3128 -0.0460
vn 0.9452 -0.3077 -0.1092
vn 0.8590 0.5115 0.0212
vn 0.9202 0.3879 0.0522
vn -0.6406 0.7654 0.0622
vn -0.2389 -0.9431 0.2314
vn 0.0233 -0.0933 0.9954
vn -0.8494 -0.5278 -0.0042
vn -0.8737 0.2091 -0.4391
vn -0.9448 -0.1267 0.3021
vn 0.9405 0.1109 0.3211
vn -0.9470 0.0882 0.3090
vn 0.0473 -0.9869 -0.1541
vn -0.0235 0.5056 -0.8624
vn 0.9714 0.2132 -0.1044
vn -0.7554 -0.5882 0.2889
vn 0.4053 -0.8186 0.4069
vn -0.8093 -0.4962 0.3144
vn -0.4361 0.6514 -0.6209
vn -0.1984 0.9452 -0.2594
vn 0.5196 0.7723 -0.3656
vn -0.5855 0.7217 -0.3693
vn 0.9884 -0.1187 0.0952
vn 0.7180 -0.4207 0.5545
vn -0.9156 -0.2387 -0.3237
vn 0.8698 -0.4479 -0.2071
vn -0.8479 0.5292 -0.0324
vn -0.4132 -0.8313 0.3717
vn 0.3731 0.0279 0.9274
vn 0.6043 0.7945 -0.0590
vn -0.5897 -0.8045 0.0705
vn -0.7547 0.6118 -0.2371
vn 0.7572 -0.6390 -0.1353
vn -0.2821 -0.9524 -0.1158
vn 0.1940 0.9634 -0.1849
vn -0.5531 0.8280 -0.0923
vn 0.9387 -0.3414 -0.0485
vn 0.9308 0.2945 -0.2165
vn -0.9381 -0.1289 0.3216
vn -0.4861 -0.8617 0.1455
vn 0.7371 -0.6661 -0.1140
vn 0.9487 -0.3128 -0.0460
vn 0.9452 0.3077 -0.1092
vn 0.8590 -0.5115 0.0212
vn 0.9202 -0.3879 0.0522
vn -0.6406 -0.7654 0.0622
g head
s off
f 114//79 113//79 131//79
f 131//80 122//80 123//80
g thigh.L
f 114//81 131//81 136//81 116//81
g upper_arm.L
f 149//82 147//82 151//82
g head
f 136//83 131//83 132//83 138//83
f 131//84 133//84 122//84
f 132//85 131//85 123//85 134//85
g hand.L
f 134//86 133//86 143//86
g upper_arm.R
f 147//87 149//87 148//87 146//87
g spine
f 128//88 127//88 121//88 119//88
f 126//89 125//89 129//89 130//89
f 129//90 128//90 119//90 120//90
f 130//91 129//91 120//91
f 127//92 130//92 120//92 121//92
f 160//93 162//93 161//93
f 154//94 156//94 160//94 161//94
f 134//95 124//95 128//95 133//95
f 126//96 130//96 127//96 124//96
g upper_arm.L
f 146//97 148//97 150//97 143//97
g thigh.L
f 135//98 142//98 133//98 131//98
g hand.L
f 134//99 143//99 144//99 138//99 132//99
f 142//100 146//100 143//100 133//100
g spine
f 123//101 126//101 124//101 134//101
f 122//102 125//102 126//102 123//102
f 155//103 154//103 161//103 162//103
g upper_arm.L
f 148//104 149//104 158//104 153//104
f 150//105 157//105 152//105 151//105
g base
f 149//106 151//106 152//106 158//106
f 159//107 157//107 153//107
g spine
f 160//108 156//108 155//108 162//108
g base
f 154//109 159//109 158//109 156//109
f 158//110 152//110 156//110
g upper_arm.L
f 157//111 159//111 154//111 155//111
g base
f 153//112 158//112 159//112
g upper_arm.R
f 151//113 147//113 144//113 143//113
g upper_arm.L
f 151//114 143//114 150//114
g head
f 113//115 115//115 135//115 131//115
g spine
f 128//116 129//116 125//116
f 124//117 127//117 128//117
f 133//118 128//118 125//118 122//118
g upper_arm.L
f 153//119 157//119 150//119 148//119
g spine
f 157//120 155//120 156//120 152//120
g thigh.L
f 118//121 137//121 117//121
g shin.L
f 137//122 164//122 163//122
g thigh.L
f 118//123 116//123 136//123 137//123
g upper_arm.R
f 176//124 178//124 147//124
g thigh.L
f 136//125 138//125 139//125 137//125
g shin.L
f 137//126 163//126 140//126
f 139//127 141//127 164//127 137//127
f 141//128 145//128 140//128
g upper_arm.R
f 147//129 146//129 175//129 176//129
g thigh.R
f 169//130 172//130 174//130 168//130
f 167//131 171//131 170//131 166//131
f 170//132 173//132 172//132 169//132
f 171//133 173//133 170//133
f 168//134 174//134 173//134 171//134
f 187//93 188//93 189//93
f 181//135 188//135 187//135 183//135
g shin.L
f 141//136 140//136 169//136 165//136
g thigh.R
f 167//137 165//137 168//137 171//137
g upper_arm.R
f 146//138 145//138 177//138 175//138
g thigh.L
f 135//139 137//139 140//139 142//139
g shin.L
f 141//140 139//140 138//140 144//140 145//140
g foot.L
f 142//141 140//141 145//141 146//141
g shin.R
f 164//142 141//142 165//142 167//142
f 163//143 164//143 167//143 166//143
g thigh.R
f 182//144 189//144 188//144 181//144
g foot.R
f 175//145 180//145 185//145 176//145
g shin.R
f 177//146 178//146 179//146 184//146
g forearm.R
f 176//147 185//147 179//147 178//147
g foot.R
f 186//148 180//148 184//148
g thigh.R
f 187//149 189//149 182//149 183//149
g foot.R
f 181//150 183//150 185//150 186//150
g shin.R
f 185//151 183//151 179//151
g forearm.R
f 184//152 182//152 181//152 186//152
g foot.R
f 180//153 186//153 185//153
g foot.L
f 178//154 145//154 144//154 147//154
g upper_arm.R
f 178//155 177//155 145//155
g thigh.L
f 117//156 137//156 135//156 115//156
g thigh.R
f 169//157 166//157 170//157
f 165//158 169//158 168//158
g shin.L
f 140//159 163//159 166//159 169//159
g upper_arm.R
f 180//160 175//160 177//160 184//160
g shin.R
f 184//161 179//161 183//161 182//161
